<svg width="206" height="43" viewBox="0 0 206 43" fill="none" xmlns="http://www.w3.org/2000/svg">
<g clip-path="url(#clip0_38_4)">
<path d="M53.1667 34.5524H54.7156L57.4037 41.0123H57.5047L60.1928 34.5524H61.7417V42.862H60.5295V36.8493H60.4509L57.9593 42.8509H56.9548L54.4631 36.8437H54.3845V42.862H53.1724V34.5524H53.1667Z" fill="#333333"/>
<path d="M70.6757 34.5524V42.862H69.4019V34.5524H70.6757Z" fill="#333333"/>
<path d="M85.1543 34.5524V42.862H83.9815L79.6884 36.7664H79.6098V42.862H78.3359V34.5524H79.5144L83.8131 40.6534H83.8917V34.5524H85.1543Z" fill="#333333"/>
<path d="M94.0942 34.5524V42.862H92.8203V34.5524H94.0942Z" fill="#333333"/>
<path d="M106.362 36.7333C106.317 36.3468 106.137 36.0487 105.817 35.8389C105.497 35.6291 105.099 35.5186 104.611 35.5186C104.263 35.5186 103.965 35.5739 103.713 35.6788C103.46 35.7837 103.264 35.9327 103.123 36.1149C102.983 36.3027 102.916 36.5125 102.916 36.7444C102.916 36.9431 102.961 37.1143 103.056 37.2579C103.152 37.4014 103.275 37.5229 103.432 37.6167C103.589 37.7106 103.758 37.7934 103.932 37.8542C104.106 37.9149 104.28 37.9701 104.448 38.0087L105.273 38.2186C105.542 38.2848 105.817 38.3732 106.103 38.4836C106.384 38.594 106.648 38.7431 106.889 38.9198C107.13 39.102 107.327 39.3283 107.478 39.5934C107.63 39.8639 107.703 40.1841 107.703 40.5541C107.703 41.0234 107.579 41.443 107.332 41.8074C107.085 42.1718 106.732 42.4589 106.266 42.6743C105.8 42.8841 105.239 42.989 104.577 42.989C103.915 42.989 103.398 42.8896 102.933 42.6908C102.467 42.4921 102.108 42.2105 101.85 41.8516C101.591 41.4927 101.446 41.0565 101.417 40.5541H102.697C102.719 40.8522 102.82 41.1062 102.994 41.305C103.168 41.5037 103.393 41.6528 103.668 41.7467C103.943 41.8405 104.24 41.8902 104.571 41.8902C104.93 41.8902 105.25 41.835 105.537 41.7246C105.823 41.6142 106.042 41.4541 106.204 41.2553C106.367 41.0565 106.446 40.8191 106.446 40.5486C106.446 40.3001 106.373 40.1013 106.232 39.9412C106.092 39.7866 105.901 39.6541 105.66 39.5492C105.419 39.4443 105.149 39.3559 104.846 39.2787L103.847 39.0081C103.168 38.8259 102.635 38.5609 102.242 38.2075C101.85 37.8542 101.653 37.3904 101.653 36.8106C101.653 36.3303 101.788 35.9162 102.052 35.5573C102.315 35.1984 102.675 34.9223 103.123 34.7236C103.572 34.5248 104.083 34.4254 104.65 34.4254C105.217 34.4254 105.727 34.5248 106.165 34.7236C106.603 34.9223 106.951 35.1929 107.203 35.5352C107.456 35.8775 107.591 36.2751 107.602 36.7223H106.373L106.362 36.7333Z" fill="#333333"/>
<path d="M114.622 35.6291V34.5469H121.16V35.6291H118.522V42.862H117.254V35.6291H114.622Z" fill="#333333"/>
<path d="M128.405 42.862V34.5524H131.418C132.075 34.5524 132.614 34.6628 133.051 34.8837C133.484 35.1045 133.809 35.4137 134.022 35.8002C134.236 36.1922 134.342 36.645 134.342 37.1529C134.342 37.6609 134.236 38.1081 134.017 38.4946C133.803 38.8811 133.478 39.1793 133.046 39.3946C132.614 39.6099 132.069 39.7148 131.413 39.7148H129.134V38.6327H131.301C131.716 38.6327 132.047 38.5774 132.311 38.456C132.569 38.34 132.76 38.1689 132.883 37.948C133.007 37.7272 133.063 37.4621 133.063 37.1474C133.063 36.8327 133.001 36.5622 132.877 36.3303C132.754 36.0984 132.563 35.9217 132.305 35.8002C132.047 35.6787 131.705 35.618 131.284 35.618H129.684V42.8509H128.41L128.405 42.862ZM132.574 39.113L134.662 42.862H133.209L131.16 39.113H132.569H132.574Z" fill="#333333"/>
<path d="M140.746 34.5524H142.193L144.399 38.329H144.489L146.694 34.5524H148.142L145.078 39.5989V42.862H143.81V39.5989L140.746 34.5524Z" fill="#333333"/>
<path d="M6.7679 19.5455L1.60499 2.46804C1.47031 2.02633 1.3244 1.7061 1.16727 1.50733C1.01013 1.30856 0.740765 1.12084 0.347935 0.949675L0 0.806121V0.519012H7.73314V0.806121L7.12145 1.03802C6.6725 1.20918 6.37507 1.41899 6.21794 1.66745C6.0608 1.9159 6.05519 2.26375 6.18988 2.69993L9.3718 14.6425L12.8119 4.62687L12.1384 2.58951C12.0038 2.18645 11.8747 1.88278 11.7568 1.67297C11.639 1.46316 11.4426 1.292 11.1732 1.15396L10.5335 0.811642V0.519012H17.8569V0.806121L16.9534 1.14844C16.5662 1.28095 16.3473 1.47972 16.2968 1.73922C16.2463 1.99872 16.2968 2.33 16.4259 2.72754L20.1297 14.9241L23.6315 2.95391C23.7662 2.49564 23.8167 2.09259 23.7774 1.75027C23.7381 1.40794 23.4968 1.15948 23.0479 1.00489L22.4362 0.806121V0.519012H26.4936V0.806121L25.736 1.09323C25.3488 1.22574 25.0738 1.43555 24.9166 1.72266C24.7595 2.00977 24.6248 2.36313 24.507 2.78275L19.6639 19.5455H17.6493L13.272 6.05689L8.77694 19.5455H6.76229H6.7679Z" fill="#333333"/>
<path d="M31.8585 5.22318C33.1211 5.22318 34.2042 5.47716 35.0965 5.98512C35.9888 6.49308 36.679 7.18324 37.1561 8.05009C37.6331 8.92246 37.8688 9.91077 37.8688 11.0206C37.8688 11.2304 37.8575 11.4457 37.8407 11.6665C37.8183 11.8874 37.7846 12.0806 37.7228 12.2573H29.0301C29.0469 14.3223 29.4229 15.8131 30.1525 16.7186C30.882 17.6296 31.9651 18.0823 33.4073 18.0823C34.3782 18.0823 35.1695 17.9277 35.7699 17.624C36.3704 17.3204 36.9372 16.8676 37.4647 16.2768L37.7565 16.5364C37.1561 17.5909 36.3536 18.4136 35.349 19.0044C34.3445 19.5952 33.1492 19.8933 31.7462 19.8933C30.3433 19.8933 29.1367 19.6007 28.0705 19.0209C26.9986 18.4357 26.1624 17.602 25.562 16.5087C24.9559 15.4155 24.6584 14.118 24.6584 12.6052C24.6584 11.0923 25.0064 9.70096 25.7079 8.60222C26.4093 7.50348 27.3072 6.66424 28.4072 6.09002C29.5071 5.5158 30.6575 5.2287 31.8641 5.2287L31.8585 5.22318ZM31.7687 5.79739C31.2019 5.79739 30.7249 5.96303 30.3264 6.29983C29.928 6.63663 29.6137 7.22741 29.3949 8.0777C29.1704 8.92798 29.0469 10.1316 29.0301 11.6776H34.019C34.2154 9.59054 34.1369 8.08874 33.7833 7.1722C33.4354 6.25566 32.762 5.79187 31.7687 5.79187V5.79739Z" fill="#333333"/>
<path d="M55.7818 19.9761C53.8962 19.9761 52.1902 19.6007 50.6638 18.8442C49.1373 18.0878 47.9252 16.9615 47.0329 15.4707C46.1406 13.98 45.6917 12.1524 45.6917 9.98806C45.6917 8.34271 45.961 6.89612 46.511 5.65383C47.0553 4.41153 47.8017 3.368 48.7445 2.52324C49.6873 1.684 50.776 1.04905 52.0106 0.62943C53.2452 0.20981 54.5528 0 55.9333 0C57.0444 0 58.0602 0.12699 58.9974 0.375449C59.9289 0.623909 60.8044 0.96623 61.6237 1.40794L61.7416 4.93606H61.4497L59.9907 2.63919C59.7942 2.27478 59.581 1.9435 59.3509 1.65087C59.1152 1.35272 58.8234 1.13187 58.4755 0.977273C58.1836 0.844761 57.8974 0.745378 57.6168 0.6736C57.3363 0.607345 56.9771 0.574217 56.5506 0.574217C55.4226 0.574217 54.3956 0.872368 53.4753 1.46315C52.5493 2.05393 51.8142 3.03672 51.2586 4.40601C50.703 5.7753 50.4281 7.64702 50.4281 10.0157C50.4281 12.3843 50.6918 14.2284 51.2137 15.5977C51.7356 16.967 52.4539 17.9443 53.3574 18.524C54.261 19.1038 55.2767 19.3964 56.4047 19.3964C57.0276 19.3964 57.5214 19.3522 57.8918 19.2694C58.2622 19.1811 58.6326 19.0541 59.003 18.8829C59.3734 18.7283 59.6539 18.5074 59.8504 18.2093C60.0468 17.9111 60.2207 17.5909 60.3779 17.2486L61.663 14.4382H61.9548L61.865 18.5406C61.0457 18.9602 60.1366 19.308 59.1208 19.5731C58.1107 19.8381 56.9995 19.9761 55.793 19.9761H55.7818Z" fill="#333333"/>
<path d="M67.5386 19.8933C66.4106 19.8933 65.4622 19.5786 64.6934 18.9492C63.9246 18.3197 63.543 17.4087 63.543 16.2216C63.543 15.3217 64.0088 14.4935 64.9459 13.737C65.8775 12.9806 67.3478 12.4119 69.3512 12.031C69.6599 11.9757 70.0134 11.9095 70.4007 11.8432C70.7879 11.777 71.1975 11.7052 71.624 11.6279V9.35864C71.624 8.05561 71.4613 7.14459 71.1414 6.62007C70.8215 6.09554 70.3221 5.83052 69.6374 5.83052C69.1717 5.83052 68.8013 5.9796 68.5263 6.27775C68.2513 6.5759 68.0773 7.08386 67.9988 7.81267L67.9427 8.12739C67.9034 8.95007 67.7014 9.55189 67.331 9.93838C66.9606 10.3249 66.506 10.5126 65.9617 10.5126C65.4566 10.5126 65.0357 10.358 64.7046 10.0543C64.3735 9.75066 64.2108 9.33656 64.2108 8.81755C64.2108 8.03353 64.4858 7.37097 65.0413 6.8354C65.5969 6.29983 66.3321 5.89678 67.2468 5.63175C68.1615 5.36121 69.1548 5.2287 70.2211 5.2287C71.9495 5.2287 73.2908 5.6428 74.2336 6.47652C75.1763 7.31023 75.6477 8.66296 75.6477 10.5402V16.8842C75.6477 17.7455 76.0574 18.1762 76.8711 18.1762H77.5109L77.7746 18.4081C77.4042 18.8663 77.0002 19.2197 76.5625 19.4682C76.1247 19.7166 75.5074 19.8436 74.7106 19.8436C73.8519 19.8436 73.1785 19.6449 72.6847 19.2528C72.1908 18.8608 71.8653 18.3418 71.7082 17.6903C71.1246 18.3032 70.5241 18.8222 69.9124 19.2528C69.3007 19.6835 68.5095 19.8988 67.533 19.8988L67.5386 19.8933ZM69.3176 18.1431C69.7048 18.1431 70.0696 18.0547 70.4119 17.8725C70.7542 17.6903 71.1583 17.4087 71.624 17.0277V12.2076C71.4276 12.2463 71.2368 12.2849 71.0404 12.3236C70.844 12.3622 70.6195 12.4009 70.367 12.4395C69.4747 12.6714 68.7564 13.0579 68.2233 13.6045C67.6901 14.1511 67.4208 14.88 67.4208 15.802C67.4208 16.586 67.6059 17.1768 67.9763 17.5688C68.3467 17.9609 68.7957 18.1596 69.3176 18.1596V18.1431Z" fill="#333333"/>
<path d="M78.3303 19.4626V19.1755L78.768 19.0596C79.1553 18.9436 79.4246 18.7725 79.5705 18.5406C79.7164 18.3087 79.7894 18.0161 79.7894 17.6517V8.66848C79.7894 8.24886 79.7164 7.93414 79.5705 7.73538C79.4246 7.53661 79.1553 7.39858 78.768 7.32128L78.3303 7.20533V6.91822L83.3473 5.25631L83.6391 5.54341L83.9029 8.01144V8.24334C84.1723 7.70777 84.5314 7.21637 84.9691 6.76362C85.4069 6.3164 85.8951 5.94647 86.4282 5.65936C86.9613 5.37225 87.4945 5.2287 88.0164 5.2287C88.7571 5.2287 89.3183 5.42747 89.7055 5.83052C90.0928 6.23358 90.2892 6.74154 90.2892 7.3544C90.2892 8.00592 90.0984 8.50836 89.7224 8.86172C89.3464 9.21509 88.8918 9.39177 88.3643 9.39177C87.545 9.39177 86.8267 8.98871 86.2037 8.18812L86.1476 8.13291C85.9512 7.86237 85.7267 7.71881 85.4742 7.68568C85.2217 7.65256 84.986 7.77955 84.7727 8.04457C84.5763 8.21573 84.4192 8.42554 84.2901 8.66296C84.161 8.90037 84.0432 9.17644 83.9253 9.48011V17.486C83.9253 18.2535 84.2677 18.7283 84.9467 18.9216L85.8783 19.1811V19.4682H78.3247L78.3303 19.4626Z" fill="#333333"/>
<path d="M98.056 5.22318C99.3186 5.22318 100.402 5.47716 101.294 5.98512C102.186 6.49308 102.877 7.18324 103.354 8.05009C103.831 8.92246 104.066 9.91077 104.066 11.0206C104.066 11.2304 104.055 11.4457 104.038 11.6665C104.016 11.8874 103.982 12.0806 103.92 12.2573H95.2276C95.2444 14.3223 95.6204 15.8131 96.35 16.7186C97.0795 17.6296 98.1626 18.0823 99.6048 18.0823C100.576 18.0823 101.367 17.9277 101.967 17.624C102.568 17.3204 103.135 16.8676 103.662 16.2768L103.954 16.5364C103.354 17.5909 102.551 18.4136 101.547 19.0044C100.542 19.5952 99.3467 19.8933 97.9437 19.8933C96.5408 19.8933 95.3342 19.6007 94.268 19.0209C93.1961 18.4357 92.3599 17.602 91.7595 16.5087C91.1534 15.4155 90.856 14.118 90.856 12.6052C90.856 11.0923 91.2039 9.70096 91.9054 8.60222C92.6069 7.50348 93.5048 6.66424 94.6047 6.09002C95.7046 5.5158 96.855 5.2287 98.0616 5.2287L98.056 5.22318ZM97.9662 5.79739C97.3994 5.79739 96.9224 5.96303 96.5239 6.29983C96.1255 6.63663 95.8112 7.22741 95.5924 8.0777C95.3679 8.92798 95.2444 10.1316 95.2276 11.6776H100.217C100.413 9.59054 100.334 8.08874 99.9808 7.1722C99.6329 6.25566 98.9595 5.79187 97.9662 5.79187V5.79739Z" fill="#333333"/>
<path d="M111.939 19.4626V19.1755L112.467 19.0044C112.854 18.8719 113.118 18.6897 113.253 18.4578C113.387 18.2259 113.455 17.9222 113.455 17.5412C113.471 16.3928 113.483 15.2333 113.483 14.0683V5.95751C113.483 4.79803 113.471 3.64408 113.455 2.50116C113.455 2.12019 113.399 1.811 113.292 1.58463C113.185 1.35273 112.944 1.17053 112.579 1.03802L111.939 0.806121V0.519012H126.059L126.261 5.28391H125.969L124.308 2.26927C124.112 1.90486 123.887 1.61775 123.635 1.40794C123.382 1.19813 123.034 1.09323 122.585 1.09323H117.888C117.866 2.45147 117.86 3.83732 117.86 5.2563V9.47458H120.896C121.345 9.47458 121.676 9.38072 121.889 9.18748C122.103 8.99423 122.31 8.71817 122.501 8.35376L123.113 7.26054H123.404V12.2849H123.113L122.473 11.1917C122.276 10.8494 122.08 10.5678 121.872 10.358C121.67 10.1482 121.339 10.0433 120.896 10.0433H117.86V13.8751C117.86 15.0898 117.871 16.2824 117.888 17.4474C117.888 18.1927 118.258 18.6841 118.999 18.9105L119.875 19.17V19.4571H111.939V19.4626Z" fill="#333333"/>
<path d="M133.472 19.8933C131.996 19.8933 130.711 19.5896 129.622 18.9878C128.534 18.386 127.692 17.5302 127.097 16.4204C126.502 15.3106 126.21 14.0076 126.21 12.5168C126.21 11.0261 126.525 9.73409 127.159 8.64087C127.793 7.54765 128.657 6.70841 129.757 6.11763C130.857 5.52685 132.097 5.2287 133.478 5.2287C134.858 5.2287 136.093 5.52133 137.182 6.10659C138.27 6.69185 139.129 7.52557 139.763 8.61879C140.397 9.71201 140.711 11.0095 140.711 12.5224C140.711 14.0352 140.414 15.3382 139.825 16.4425C139.23 17.5412 138.394 18.397 137.316 18.9989C136.239 19.6007 134.959 19.9044 133.478 19.9044L133.472 19.8933ZM133.472 19.3191C134.151 19.3191 134.696 19.1258 135.105 18.7449C135.515 18.3639 135.812 17.6848 135.998 16.7075C136.183 15.7302 136.273 14.3554 136.273 12.572C136.273 10.7887 136.177 9.38625 135.998 8.40898C135.812 7.4317 135.515 6.75258 135.105 6.37161C134.696 5.99064 134.151 5.79739 133.472 5.79739C132.793 5.79739 132.243 5.99064 131.822 6.37161C131.401 6.75258 131.104 7.4317 130.919 8.40898C130.734 9.38625 130.644 10.7721 130.644 12.572C130.644 14.372 130.734 15.7302 130.919 16.7075C131.104 17.6848 131.407 18.3639 131.822 18.7449C132.238 19.1258 132.788 19.3191 133.472 19.3191Z" fill="#333333"/>
<path d="M141.991 19.4626V19.1755L142.429 19.0596C142.816 18.9436 143.085 18.7725 143.231 18.5406C143.377 18.3087 143.45 18.0161 143.45 17.6517V8.66848C143.45 8.24886 143.377 7.93414 143.231 7.73538C143.085 7.53661 142.816 7.39858 142.429 7.32128L141.991 7.20533V6.91822L147.008 5.25631L147.3 5.54341L147.564 8.01144V8.24334C147.833 7.70777 148.192 7.21637 148.63 6.76362C149.068 6.3164 149.556 5.94647 150.089 5.65936C150.622 5.37225 151.155 5.2287 151.677 5.2287C152.418 5.2287 152.979 5.42747 153.366 5.83052C153.753 6.23358 153.95 6.74154 153.95 7.3544C153.95 8.00592 153.759 8.50836 153.383 8.86172C153.007 9.21509 152.552 9.39177 152.025 9.39177C151.206 9.39177 150.487 8.98871 149.864 8.18812L149.808 8.13291C149.612 7.86237 149.387 7.71881 149.135 7.68568C148.882 7.65256 148.647 7.77955 148.433 8.04457C148.237 8.21573 148.08 8.42554 147.951 8.66296C147.822 8.90037 147.704 9.17644 147.586 9.48011V17.486C147.586 18.2535 147.928 18.7283 148.607 18.9216L149.539 19.1811V19.4682H141.985L141.991 19.4626Z" fill="#333333"/>
<path d="M164.747 19.4626V19.1755L165.623 18.9436C166.302 18.7504 166.644 18.2756 166.644 17.5081V12.053L161.829 2.4073C161.655 2.02633 161.493 1.73922 161.347 1.54598C161.201 1.35273 160.982 1.19261 160.69 1.0601L160.163 0.8006V0.519012H167.98V0.806121L167.452 1.00489C167.026 1.17605 166.79 1.41347 166.751 1.7061C166.712 2.00425 166.79 2.37417 166.987 2.81036L170.427 10.3304L174.276 2.52325C174.434 2.21958 174.495 1.89934 174.467 1.5791C174.439 1.25335 174.232 1.04354 173.839 0.949675L173.429 0.806121V0.519012H176.931V0.806121L176.375 1.00489C176.005 1.1374 175.735 1.32512 175.556 1.56254C175.382 1.79996 175.208 2.10363 175.028 2.46804L171.033 10.7334V17.5081C171.033 17.8891 171.106 18.2038 171.252 18.4412C171.398 18.6786 171.656 18.8498 172.026 18.9436L172.93 19.1755V19.4626H164.731H164.747Z" fill="#333333"/>
<path d="M182.223 19.8933C180.747 19.8933 179.462 19.5896 178.373 18.9878C177.284 18.386 176.442 17.5302 175.848 16.4204C175.253 15.3106 174.961 14.0076 174.961 12.5168C174.961 11.0261 175.275 9.73409 175.909 8.64087C176.543 7.54765 177.408 6.70841 178.508 6.11763C179.608 5.52685 180.848 5.2287 182.228 5.2287C183.609 5.2287 184.843 5.52133 185.932 6.10659C187.021 6.69185 187.879 7.52557 188.514 8.61879C189.148 9.71201 189.462 11.0095 189.462 12.5224C189.462 14.0352 189.165 15.3382 188.575 16.4425C187.98 17.5412 187.144 18.397 186.067 18.9989C184.989 19.6007 183.71 19.9044 182.228 19.9044L182.223 19.8933ZM182.223 19.3191C182.902 19.3191 183.446 19.1258 183.856 18.7449C184.265 18.3639 184.563 17.6848 184.748 16.7075C184.933 15.7302 185.023 14.3554 185.023 12.572C185.023 10.7887 184.928 9.38625 184.748 8.40898C184.563 7.4317 184.265 6.75258 183.856 6.37161C183.446 5.99064 182.902 5.79739 182.223 5.79739C181.544 5.79739 180.994 5.99064 180.573 6.37161C180.152 6.75258 179.854 7.4317 179.669 8.40898C179.484 9.38625 179.394 10.7721 179.394 12.572C179.394 14.372 179.484 15.7302 179.669 16.7075C179.854 17.6848 180.158 18.3639 180.573 18.7449C180.988 19.1258 181.538 19.3191 182.223 19.3191Z" fill="#333333"/>
<path d="M195.905 19.8933C195.147 19.8933 194.451 19.7497 193.817 19.4626C193.183 19.1755 192.689 18.7117 192.33 18.0713C191.971 17.4308 191.802 16.586 191.819 15.5314L191.909 8.15497C191.909 7.71327 191.83 7.39855 191.673 7.21083C191.516 7.0231 191.275 6.88507 190.944 6.80777L190.596 6.69182V6.40472L195.82 5.39984L196.112 5.68694L195.966 9.76168V16.6799C195.966 17.2927 196.146 17.74 196.505 18.0271C196.864 18.3142 197.319 18.4577 197.863 18.4577C198.407 18.4577 198.896 18.3804 199.322 18.2259C199.749 18.0713 200.175 17.8449 200.607 17.5357L200.725 8.17706C200.725 7.73535 200.658 7.42616 200.523 7.24396C200.388 7.06175 200.136 6.93476 199.765 6.85746L199.474 6.76912V6.48201L204.58 5.38879L204.872 5.6759L204.782 9.75063V17.5302C204.782 17.9498 204.839 18.2755 204.956 18.5074C205.074 18.7393 205.327 18.9271 205.714 19.0817L206.006 19.17V19.4571L200.899 19.7442L200.635 18.0492C199.996 18.5682 199.3 18.9988 198.548 19.3577C197.801 19.7111 196.92 19.8878 195.905 19.8878V19.8933Z" fill="#333333"/>
</g>
<defs>
<clipPath id="clip0_38_4">
<rect width="206" height="43" fill="white"/>
</clipPath>
</defs>
</svg>
